#!OML:ASF F:\VICON\USERDATA\INSTALL\rory3\rory3.ASF
:FULLY-SPECIFIED
:DEGREES
461
root 0.798262 14.493 7.20346 22.1179 -3.62958 -6.20618
lowerback 4.71753 0.614941 3.63807
upperback -5.31969 1.30671 2.26953
thorax -8.22355 0.499831 0.200127
lowerneck -17.477 -2.76298 -6.58552
upperneck 12.66 -3.00702 5.40697
head 6.91393 -1.2869 2.501
rclavicle -2.00524e-014 5.81445e-015
rhumerus -32.9909 9.50755 -84.037
rradius 44.403
rwrist 11.7587
rhand -27.5809 -49.4543
rfingers 7.12502
rthumb -0.981176 -79.4317
lclavicle -2.00524e-014 5.81445e-015
lhumerus -39.9133 -9.48016 80.7173
lradius 51.1514
lwrist -2.58571
lhand -31.0231 -47.0965
lfingers 7.12502
lthumb -4.30543 -17.1603
rfemur -63.287 3.49763 17.9576
rtibia 77.8568
rfoot -27.5209 -20.8349
rtoes -19.4443
lfemur -63.7801 5.9992 -10.8138
ltibia 80.904
lfoot -32.5112 17.0052
ltoes -17.3172
462
root 0.914887 14.5418 7.19034 22.3237 -1.92663 -5.98221
lowerback 4.48361 0.173337 5.26695
upperback -5.3893 0.826037 2.09757
thorax -8.16238 0.160277 -0.832143
lowerneck -17.5018 -2.94939 -6.5971
upperneck 12.5491 -3.24761 5.38296
head 6.89711 -1.40457 2.46698
rclavicle 4.44781e-015 2.08724e-015
rhumerus -33.0716 9.14539 -83.2626
rradius 45.3992
rwrist 11.6505
rhand -27.1951 -49.6529
rfingers 7.12502
rthumb -0.608544 -79.6318
lclavicle 4.44781e-015 2.08724e-015
lhumerus -39.3547 -10.0856 80.5851
lradius 52.66
lwrist -1.80816
lhand -31.1086 -46.8314
lfingers 7.12502
lthumb -4.38797 -16.8968
rfemur -62.695 1.072 18.0103
rtibia 77.5049
rfoot -27.8528 -20.6462
rtoes -20.026
lfemur -64.0638 3.89861 -10.9812
ltibia 80.6368
lfoot -32.4559 18.1281
ltoes -17.4397
463
root 0.950143 14.5505 7.21734 22.3209 -1.38177 -6.00294
lowerback 3.92038 0.165634 5.47032
upperback -5.23757 0.782252 2.10414
thorax -7.66959 0.140256 -0.93245
lowerneck -17.6869 -3.15923 -6.63714
upperneck 12.5224 -3.52513 5.47624
head 6.93963 -1.52859 2.47117
rclavicle 5.41688e-015 -1.95803e-014
rhumerus -33.1937 8.75446 -82.51
rradius 46.3264
rwrist 11.9893
rhand -27.0208 -50.5363
rfingers 7.12502
rthumb -0.440194 -80.5156
lclavicle 5.41688e-015 -1.95803e-014
lhumerus -38.7298 -11.0148 80.4133
lradius 54.1417
lwrist -1.41432
lhand -30.9015 -46.234
lfingers 7.12502
lthumb -4.18798 -16.2954
rfemur -62.2291 0.584408 18.0495
rtibia 77.1737
rfoot -27.9752 -20.7013
rtoes -19.9531
lfemur -63.8952 3.26394 -10.8586
ltibia 80.3828
lfoot -32.716 18.3245
ltoes -17.5728
464
root 0.910581 14.5817 7.32583 21.8175 -1.05794 -6.49681
lowerback 2.74592 0.24088 4.98448
upperback -4.86767 0.762933 2.41449
thorax -6.59514 0.193789 -0.332927
lowerneck -17.6978 -3.29756 -6.82017
upperneck 12.8032 -3.73733 5.83206
head 7.05739 -1.60735 2.59482
rclavicle -1.30452e-015 -2.74323e-014
rhumerus -33.7402 8.70377 -82.0141
rradius 47.341
rwrist 12.3758
rhand -27.319 -51.7142
rfingers 7.12502
rthumb -0.728205 -81.6927
lclavicle -1.30452e-015 -2.74323e-014
lhumerus -38.445 -12.1933 80.1817
lradius 55.4847
lwrist -1.5632
lhand -30.6856 -45.7623
lfingers 7.12502
lthumb -3.97952 -15.8197
rfemur -60.8341 1.30649 18.697
rtibia 76.5548
rfoot -28.1296 -21.3495
rtoes -19.5903
lfemur -62.6392 3.42472 -9.9961
ltibia 79.8546
lfoot -33.2975 17.7735
ltoes -17.6525
465
root 0.975218 14.6259 7.3344 21.7552 -0.0363344 -7.05539
lowerback 2.72548 0.0585821 6.27919
upperback -5.11724 0.61524 2.51667
thorax -6.86015 0.0478263 -0.930804
lowerneck -17.281 -3.39429 -6.90178
upperneck 13.04 -3.91001 5.97435
head 7.08047 -1.68819 2.6391
rclavicle -1.30949e-014 -7.35503e-015
rhumerus -34.5757 9.00887 -81.6086
rradius 48.3489
rwrist 12.7273
rhand -27.2636 -53.0067
rfingers 7.12502
rthumb -0.674688 -82.9854
lclavicle -1.30949e-014 -7.35503e-015
lhumerus -38.5565 -13.3856 79.9656
lradius 56.9868
lwrist -2.42463
lhand -30.7975 -45.7699
lfingers 7.12502
lthumb -4.0876 -15.8293
rfemur -60.0931 0.347392 19.4393
rtibia 75.8664
rfoot -28.0019 -21.2582
rtoes -20.351
lfemur -62.5018 2.5408 -9.25408
ltibia 79.486
lfoot -33.237 17.6374
ltoes -17.3578
